<svg xmlns="http://www.w3.org/2000/svg" viewBox="0 0 400 300" width="400" height="300">
  <defs>
    <linearGradient id="g" x1="0" y1="0" x2="1" y2="1">
      <stop offset="0" stop-color="#ec4899"/>
      <stop offset="1" stop-color="#8b5cf6"/>
    </linearGradient>
    <linearGradient id="card" x1="0" y1="0" x2="0" y2="1">
      <stop offset="0" stop-color="#4f46e5"/>
      <stop offset="1" stop-color="#3730a3"/>
    </linearGradient>
  </defs>
  <rect width="400" height="300" fill="url(#g)"/>
  <g font-family="system-ui,-apple-system,sans-serif" font-size="30" text-anchor="middle">
    <g transform="translate(60 50) rotate(-6 30 40)">
      <rect width="60" height="80" rx="8" fill="#fff"/>
      <text x="30" y="55">🍎</text>
    </g>
    <g transform="translate(140 45)">
      <rect width="60" height="80" rx="8" fill="url(#card)"/>
      <text x="30" y="55" font-size="32" font-weight="700" fill="#a5b4fc">?</text>
    </g>
    <g transform="translate(220 45) rotate(4 30 40)">
      <rect width="60" height="80" rx="8" fill="#fff"/>
      <text x="30" y="55">🍇</text>
    </g>
    <g transform="translate(300 50) rotate(-3 30 40)">
      <rect width="60" height="80" rx="8" fill="url(#card)"/>
      <text x="30" y="55" font-size="32" font-weight="700" fill="#a5b4fc">?</text>
    </g>
    <g transform="translate(80 145) rotate(3 30 40)">
      <rect width="60" height="80" rx="8" fill="url(#card)"/>
      <text x="30" y="55" font-size="32" font-weight="700" fill="#a5b4fc">?</text>
    </g>
    <g transform="translate(170 150)">
      <rect width="60" height="80" rx="8" fill="#fff" stroke="#fde047" stroke-width="3"/>
      <text x="30" y="55">🍓</text>
    </g>
    <g transform="translate(260 145) rotate(-4 30 40)">
      <rect width="60" height="80" rx="8" fill="#fff" stroke="#fde047" stroke-width="3"/>
      <text x="30" y="55">🍓</text>
    </g>
  </g>
  <text x="200" y="265" text-anchor="middle" font-family="system-ui,-apple-system,sans-serif" font-size="22" font-weight="800" fill="#fff" letter-spacing="2">翻 牌 记 忆</text>
</svg>
