<svg xmlns="http://www.w3.org/2000/svg" viewBox="0 0 400 300"><defs><linearGradient id="bg" x1="0" y1="0" x2="0" y2="1"><stop offset="0%" stop-color="#0a0a2e"/><stop offset="100%" stop-color="#1a0a3e"/></linearGradient><linearGradient id="ship" x1="0" y1="0" x2="0" y2="1"><stop offset="0%" stop-color="#60a5fa"/><stop offset="100%" stop-color="#3b82f6"/></linearGradient></defs><rect width="400" height="300" rx="12" fill="url(#bg)"/><circle cx="80" cy="40" r="1.5" fill="#fff" opacity="0.8"/><circle cx="320" cy="60" r="1" fill="#fff" opacity="0.6"/><circle cx="150" cy="80" r="1.2" fill="#fff" opacity="0.7"/><circle cx="280" cy="30" r="1.5" fill="#fff" opacity="0.5"/><circle cx="50" cy="120" r="1" fill="#fff" opacity="0.6"/><circle cx="370" cy="100" r="1.3" fill="#fff" opacity="0.4"/><circle cx="200" cy="50" r="1" fill="#fff" opacity="0.8"/><circle cx="120" cy="150" r="1.5" fill="#fff" opacity="0.3"/><circle cx="340" cy="180" r="1" fill="#fff" opacity="0.5"/><circle cx="60" cy="200" r="1.2" fill="#fff" opacity="0.4"/><g transform="translate(200,175)"><polygon points="0,-35 -18,20 -8,15 0,22 8,15 18,20" fill="url(#ship)" stroke="#93c5fd" stroke-width="1"/><rect x="-4" y="22" width="8" height="12" rx="2" fill="#60a5fa" opacity="0.8"/><ellipse cx="-4" cy="38" rx="4" ry="8" fill="#f97316" opacity="0.9"/><ellipse cx="4" cy="38" rx="4" ry="8" fill="#f97316" opacity="0.9"/><ellipse cx="-4" cy="42" rx="3" ry="6" fill="#fbbf24" opacity="0.7"/><ellipse cx="4" cy="42" rx="3" ry="6" fill="#fbbf24" opacity="0.7"/></g><rect x="198" y="90" width="4" height="50" rx="2" fill="#60a5fa" opacity="0.6"/><rect x="198" y="70" width="4" height="30" rx="2" fill="#93c5fd" opacity="0.4"/><circle cx="190" cy="50" r="6" fill="#ef4444" opacity="0.8"/><circle cx="190" cy="50" r="3" fill="#fca5a5"/><circle cx="220" cy="80" r="5" fill="#ef4444" opacity="0.7"/><circle cx="220" cy="80" r="2.5" fill="#fca5a5"/><circle cx="170" cy="90" r="4" fill="#ef4444" opacity="0.6"/><circle cx="170" cy="90" r="2" fill="#fca5a5"/><text x="200" y="265" text-anchor="middle" font-size="20" font-weight="bold" fill="#e0e7ff" font-family="system-ui">太空射击</text><text x="200" y="285" text-anchor="middle" font-size="12" fill="#818cf8" font-family="system-ui">SPACE SHOOTER</text></svg>