<svg xmlns="http://www.w3.org/2000/svg" viewBox="0 0 400 300"><defs><linearGradient id="bg" x1="0" y1="0" x2="1" y2="1"><stop offset="0%" stop-color="#1a1a2e"/><stop offset="100%" stop-color="#16213e"/></linearGradient></defs><rect width="400" height="300" rx="12" fill="url(#bg)"/><g transform="translate(115,45)"><rect x="0" y="0" width="36" height="36" rx="8" fill="#e53e3e"/><rect x="42" y="0" width="36" height="36" rx="8" fill="#38a169"/><rect x="84" y="0" width="36" height="36" rx="8" fill="#3182ce"/><rect x="126" y="0" width="36" height="36" rx="8" fill="#d69e2e"/><rect x="168" y="0" width="36" height="36" rx="8" fill="#805ad5"/><rect x="0" y="42" width="36" height="36" rx="8" fill="#3182ce"/><rect x="42" y="42" width="36" height="36" rx="8" fill="#e53e3e"/><rect x="84" y="42" width="36" height="36" rx="8" fill="#d69e2e"/><rect x="126" y="42" width="36" height="36" rx="8" fill="#38a169"/><rect x="168" y="42" width="36" height="36" rx="8" fill="#e53e3e"/><rect x="0" y="84" width="36" height="36" rx="8" fill="#805ad5"/><rect x="42" y="84" width="36" height="36" rx="8" fill="#d69e2e"/><rect x="84" y="84" width="36" height="36" rx="8" fill="#805ad5"/><rect x="126" y="84" width="36" height="36" rx="8" fill="#3182ce"/><rect x="168" y="84" width="36" height="36" rx="8" fill="#38a169"/><rect x="0" y="126" width="36" height="36" rx="8" fill="#38a169"/><rect x="42" y="126" width="36" height="36" rx="8" fill="#3182ce"/><rect x="84" y="126" width="36" height="36" rx="8" fill="#e53e3e"/><rect x="126" y="126" width="36" height="36" rx="8" fill="#805ad5"/><rect x="168" y="126" width="36" height="36" rx="8" fill="#d69e2e"/><rect x="0" y="168" width="36" height="36" rx="8" fill="#d69e2e"/><rect x="42" y="168" width="36" height="36" rx="8" fill="#805ad5"/><rect x="84" y="168" width="36" height="36" rx="8" fill="#38a169"/><rect x="126" y="168" width="36" height="36" rx="8" fill="#e53e3e"/><rect x="168" y="168" width="36" height="36" rx="8" fill="#3182ce"/><path d="M18 10 L24 22 L12 16 H24 L18 22 Z" fill="#fff" opacity="0.5" transform="translate(42,0)"/><path d="M18 10 L24 22 L12 16 H24 L18 22 Z" fill="#fff" opacity="0.5" transform="translate(84,84)"/></g><text x="200" y="275" text-anchor="middle" font-size="22" font-weight="bold" fill="#e2e8f0" font-family="system-ui">消 消 乐</text></svg>