<svg xmlns="http://www.w3.org/2000/svg" viewBox="0 0 400 300"><defs><linearGradient id="bg" x1="0" y1="0" x2="0" y2="1"><stop offset="0%" stop-color="#68d391"/><stop offset="60%" stop-color="#48bb78"/><stop offset="100%" stop-color="#2f855a"/></linearGradient></defs><rect width="400" height="300" rx="12" fill="url(#bg)"/><ellipse cx="100" cy="200" rx="45" ry="18" fill="#2f855a"/><ellipse cx="200" cy="200" rx="45" ry="18" fill="#2f855a"/><ellipse cx="300" cy="200" rx="45" ry="18" fill="#2f855a"/><ellipse cx="150" cy="240" rx="45" ry="18" fill="#2f855a"/><ellipse cx="250" cy="240" rx="45" ry="18" fill="#2f855a"/><g transform="translate(200,175)"><ellipse cx="0" cy="12" rx="32" ry="14" fill="#975a16"/><ellipse cx="0" cy="0" rx="26" ry="22" fill="#c4843e"/><circle cx="-8" cy="-5" r="4" fill="#1a202c"/><circle cx="8" cy="-5" r="4" fill="#1a202c"/><ellipse cx="0" cy="5" rx="6" ry="4" fill="#975a16"/><circle cx="-8" cy="-6" r="1.5" fill="#fff"/><circle cx="8" cy="-6" r="1.5" fill="#fff"/><ellipse cx="-22" cy="-2" rx="8" ry="6" fill="#ddb87a" opacity="0.5"/><ellipse cx="22" cy="-2" rx="8" ry="6" fill="#ddb87a" opacity="0.5"/></g><rect x="320" y="40" width="60" height="75" rx="8" fill="#f6e05e" stroke="#d69e2e" stroke-width="2"/><text x="350" y="65" text-anchor="middle" font-size="16" font-weight="bold" fill="#744210">99</text><text x="350" y="90" text-anchor="middle" font-size="10" fill="#975a16">SCORE</text><text x="200" y="40" text-anchor="middle" font-size="22" font-weight="bold" fill="#fff" font-family="system-ui">打地鼠</text></svg>