<svg xmlns="http://www.w3.org/2000/svg" viewBox="0 0 400 300"><defs><linearGradient id="bg" x1="0" y1="0" x2="0" y2="1"><stop offset="0%" stop-color="#4a5568"/><stop offset="100%" stop-color="#2d3748"/></linearGradient></defs><rect width="400" height="300" rx="12" fill="url(#bg)"/><g transform="translate(100,45)"><rect x="0" y="0" width="48" height="48" rx="6" fill="#a0aec0"/><rect x="56" y="0" width="48" height="48" rx="6" fill="#a0aec0"/><rect x="112" y="0" width="48" height="48" rx="6" fill="#a0aec0"/><rect x="168" y="0" width="48" height="48" rx="6" fill="#a0aec0"/><rect x="0" y="56" width="48" height="48" rx="6" fill="#a0aec0"/><rect x="56" y="56" width="48" height="48" rx="6" fill="#718096"/><text x="80" y="90" text-anchor="middle" font-size="22" font-weight="bold" fill="#3182ce">1</text><rect x="112" y="56" width="48" height="48" rx="6" fill="#718096"/><text x="136" y="90" text-anchor="middle" font-size="22" font-weight="bold" fill="#38a169">2</text><rect x="168" y="56" width="48" height="48" rx="6" fill="#a0aec0"/><rect x="0" y="112" width="48" height="48" rx="6" fill="#a0aec0"/><rect x="56" y="112" width="48" height="48" rx="6" fill="#a0aec0"/><rect x="112" y="112" width="48" height="48" rx="6" fill="#a0aec0"/><rect x="168" y="112" width="48" height="48" rx="6" fill="#718096"/><text x="192" y="146" text-anchor="middle" font-size="22" font-weight="bold" fill="#e53e3e">1</text><circle cx="136" cy="136" r="14" fill="#2d3748"/><line x1="136" y1="118" x2="136" y2="154" stroke="#2d3748" stroke-width="3"/><line x1="118" y1="136" x2="154" y2="136" stroke="#2d3748" stroke-width="3"/><line x1="123" y1="123" x2="149" y2="149" stroke="#2d3748" stroke-width="3"/><line x1="149" y1="123" x2="123" y2="149" stroke="#2d3748" stroke-width="3"/><circle cx="136" cy="133" r="5" fill="#e53e3e" opacity="0.7"/></g><text x="200" y="265" text-anchor="middle" font-size="24" font-weight="bold" fill="#e2e8f0" font-family="system-ui">Minesweeper</text></svg>